10 Years LIMITED BDRip XviD-SAPHiRE [MyTV]

Screenshots:
 
http://imageshack.us/a/img401/5813/vlcsnap2012112813h41m03.png
 
http://imageshack.us/a/img96/291/vlcsnap2012112813h41m09.png
 
http://imageshack.us/a/img152/4377/vlcsnap2012112813h41m13.png

NFO:
 
http://www.imdb.com/title/tt1715873/

Format : AVI
Format/Info : Audio Video Interleave
File size : 700 MiB
Duration : 1h 40mn
Overall bit rate mode : Variable
Overall bit rate : 972 Kbps
Writing application : Nandub v1.0rc3
Writing library : Nandub build 2079/release

Video
ID : 0
Format : MPEG-4 Visual
Format profile : Advanced Simple@L5
Format settings, BVOP : 2
Format settings, QPel : No
Format settings, GMC : No warppoints
Format settings, Matrix : Default (H.263)
Muxing mode : Packed bitstream
Codec ID : XVID
Codec ID/Hint : XviD
Duration : 1h 40mn
Bit rate : 824 Kbps
Width : 624 pixels
Height : 352 pixels
Display aspect ratio : 16:9
Frame rate : 23.976 fps
Color space : YUV
Chroma subsampling : 4:2:0
Bit depth : 8 bits
Scan type : Progressive
Compression mode : Lossy
Bits/(Pixel*Frame) : 0.156
Stream size : 594 MiB (85%)
Writing library : XviD 57

Audio
ID : 1
Format : MPEG Audio
Format version : Version 1
Format profile : Layer 3
Mode : Joint stereo
Mode extension : MS Stereo
Codec ID : 55
Codec ID/Hint : MP3
Duration : 1h 40mn
Bit rate mode : Variable
Bit rate : 135 Kbps
Minimum bit rate : 128 Kbps
Channel(s) : 2 channels
Sampling rate : 48.0 KHz
Compression mode : Lossy
Stream size : 97.0 MiB (14%)
Alignment : Aligned on interleaves
Interleave, duration : 24 ms (0.58 video frame)
Interleave, preload duration : 131 ms
Writing library : LAME3.99r
Encoding settings : -m j -V 4 -q 0 -lowpass 17.5 --vbr-new -b 128